<?xml version="1.0" standalone="no"?>
<!DOCTYPE svg PUBLIC "-//W3C//DTD SVG 20010904//EN"
 "http://www.w3.org/TR/2001/REC-SVG-20010904/DTD/svg10.dtd">
<svg version="1.0" xmlns="http://www.w3.org/2000/svg"
 width="366.000000pt" height="276.000000pt" viewBox="0 0 366.000000 276.000000"
 preserveAspectRatio="xMidYMid meet">

<g transform="translate(0.000000,276.000000) scale(0.100000,-0.100000)"
fill="#000000" stroke="none">
<path d="M1475 2371 c-114 -30 -158 -95 -159 -236 l-1 -90 58 -3 57 -3 0 86
c0 78 2 88 25 110 l24 25 231 0 231 0 24 -25 c23 -22 25 -32 25 -110 l0 -85
54 0 c34 0 56 5 58 13 3 6 3 48 2 91 -5 105 -31 160 -97 200 l-49 30 -226 3
c-125 1 -240 -1 -257 -6z"/>
<path d="M1090 2008 c-24 -13 -52 -36 -62 -53 -12 -22 -34 -163 -77 -510 -34
-264 -70 -553 -82 -643 -19 -149 -19 -165 -5 -187 9 -14 30 -27 48 -30 18 -3
390 -5 826 -3 l794 3 20 25 c16 20 19 33 14 70 -4 25 -40 313 -81 640 -54 433
-79 605 -92 630 -27 52 -92 83 -162 76 -65 -6 -88 -21 -160 -107 -30 -35 -58
-65 -62 -67 -4 -2 -38 24 -77 58 -38 33 -72 60 -75 60 -2 0 -23 -29 -46 -64
-39 -60 -42 -67 -35 -113 l6 -50 -72 -42 c-39 -22 -76 -41 -82 -41 -5 0 -7 12
-4 28 3 15 10 55 17 89 l12 63 -43 65 c-23 36 -45 65 -48 65 -3 0 -36 -27 -73
-60 -37 -33 -71 -60 -76 -60 -4 0 -30 27 -57 61 -69 85 -104 109 -168 115 -43
4 -62 1 -98 -18z m720 -393 c7 -36 10 -71 7 -79 -6 -14 -216 -136 -235 -136
-11 0 -8 32 12 125 11 49 13 50 101 102 50 29 93 53 96 53 4 0 12 -29 19 -65z
m475 40 c0 -19 -8 -20 -154 -23 -155 -3 -179 2 -168 33 6 13 28 15 164 13 150
-3 158 -4 158 -23z m-435 -259 c7 -36 9 -69 6 -74 -5 -8 -291 -179 -318 -190
-12 -5 -9 54 5 122 l12 59 135 77 c74 43 138 76 141 74 4 -2 12 -33 19 -68z
m40 -217 c7 -39 10 -72 9 -73 -16 -14 -339 -196 -347 -196 -16 0 -52 73 -52
104 0 15 10 32 28 44 48 35 326 192 338 192 7 0 17 -30 24 -71z m28 -177 c-9
-65 -175 -332 -207 -332 -20 0 -48 33 -100 119 -27 45 -30 56 -19 67 20 20
301 182 317 183 10 1 12 -9 9 -37z"/>
</g>
</svg>
