<?xml version="1.0" standalone="no"?>
<!DOCTYPE svg PUBLIC "-//W3C//DTD SVG 20010904//EN"
 "http://www.w3.org/TR/2001/REC-SVG-20010904/DTD/svg10.dtd">
<svg version="1.0" xmlns="http://www.w3.org/2000/svg"
 width="765.000000pt" height="791.000000pt" viewBox="0 0 765.000000 791.000000"
 preserveAspectRatio="xMidYMid meet">

<g transform="translate(0.000000,791.000000) scale(0.100000,-0.100000)"
fill="#000000" stroke="none">
<path d="M3958 7783 c7 -3 16 -2 19 1 4 3 -2 6 -13 5 -11 0 -14 -3 -6 -6z"/>
<path d="M4015 7760 c3 -5 10 -10 16 -10 5 0 9 5 9 10 0 6 -7 10 -16 10 -8 0
-12 -4 -9 -10z"/>
<path d="M4078 7763 c6 -2 18 -2 25 0 6 3 1 5 -13 5 -14 0 -19 -2 -12 -5z"/>
<path d="M3958 7753 c6 -2 18 -2 25 0 6 3 1 5 -13 5 -14 0 -19 -2 -12 -5z"/>
<path d="M4178 7753 c6 -2 18 -2 25 0 6 3 1 5 -13 5 -14 0 -19 -2 -12 -5z"/>
<path d="M4238 7753 c6 -2 18 -2 25 0 6 3 1 5 -13 5 -14 0 -19 -2 -12 -5z"/>
<path d="M3370 7731 c0 -4 11 -6 25 -3 14 2 25 6 25 8 0 2 -11 4 -25 4 -14 0
-25 -4 -25 -9z"/>
<path d="M4060 7729 c-41 -4 -97 -5 -125 -3 -95 10 -531 -35 -657 -67 -20 -5
-69 -13 -109 -18 -40 -5 -124 -26 -188 -46 -64 -20 -144 -45 -178 -56 -34 -10
-69 -19 -77 -19 -15 0 -160 -57 -351 -138 -38 -16 -102 -46 -141 -66 -39 -20
-77 -36 -84 -36 -8 0 -22 -8 -33 -17 -15 -13 -19 -14 -13 -3 4 8 0 6 -9 -5 -9
-11 -18 -19 -21 -17 -2 1 -17 -4 -33 -12 -15 -8 -37 -15 -47 -14 -24 1 -160
-79 -241 -143 -35 -27 -68 -49 -74 -49 -7 0 -10 -3 -6 -6 5 -6 -12 -22 -67
-64 -12 -9 -17 -10 -12 -2 11 19 1 15 -48 -19 -49 -32 -64 -49 -46 -49 6 0 8
-5 4 -11 -5 -8 -9 -7 -14 1 -6 10 -14 8 -34 -7 -14 -11 -23 -23 -19 -26 3 -4
-3 -10 -13 -14 -32 -11 -84 -55 -84 -69 0 -8 -3 -14 -7 -15 -31 -3 -46 -10
-63 -31 -11 -12 -19 -26 -20 -30 0 -5 -6 -8 -12 -8 -25 0 -208 -210 -208 -238
0 -12 -45 -53 -52 -47 -2 3 -13 -5 -24 -17 l-19 -23 23 19 c33 28 27 6 -11
-35 -17 -20 -36 -43 -42 -51 -5 -9 -29 -40 -52 -71 -71 -93 -220 -319 -255
-387 -24 -47 -39 -65 -53 -65 -22 1 -75 -76 -75 -107 0 -10 -4 -18 -10 -18 -5
0 -13 -12 -16 -27 -4 -16 -18 -50 -31 -76 -35 -71 -103 -248 -103 -269 0 -10
-7 -29 -15 -41 -23 -35 -47 -109 -32 -100 7 4 4 -4 -6 -17 -9 -14 -22 -35 -27
-48 -16 -37 -43 -164 -42 -197 1 -16 -9 -63 -23 -105 -51 -160 -69 -251 -95
-475 -12 -106 -20 -446 -10 -440 10 6 32 -238 24 -268 -3 -14 -13 -28 -21 -31
-12 -5 -14 -2 -8 16 20 61 16 226 -6 213 -10 -7 -12 18 -10 135 1 41 -3 100
-8 130 -7 39 -9 -30 -6 -230 4 -311 20 -493 61 -674 14 -61 33 -149 43 -196
10 -47 24 -105 31 -130 8 -25 14 -49 14 -55 3 -30 81 -245 89 -245 16 0 0 83
-28 138 -14 29 -25 60 -24 70 4 27 -11 82 -23 82 -6 0 -8 7 -5 15 4 8 2 17 -3
20 -6 3 -9 23 -9 43 0 20 -4 60 -11 87 -6 28 -15 73 -20 101 -4 29 -11 63 -15
75 -5 13 -7 39 -7 57 1 17 -3 32 -9 32 -8 0 -9 15 -5 45 5 29 4 45 -3 45 -15
0 -14 19 3 35 11 12 14 5 20 -43 11 -95 36 -234 52 -284 20 -64 74 -276 80
-313 5 -31 33 -113 44 -130 3 -5 14 -37 24 -70 10 -33 23 -68 27 -78 5 -9 19
-43 31 -75 11 -31 29 -69 39 -84 11 -14 19 -31 19 -38 0 -36 258 -489 342
-600 81 -108 138 -190 138 -199 0 -6 4 -11 9 -11 6 0 43 -39 83 -87 90 -108
302 -327 343 -355 23 -15 21 -11 -11 20 -23 23 -39 44 -36 47 4 4 -19 30 -50
58 -74 67 -198 207 -198 224 0 7 -4 13 -9 13 -14 0 -177 198 -234 283 -26 40
-68 101 -94 136 -25 35 -46 70 -46 77 0 7 -4 11 -9 8 -7 -5 -10 3 -7 22 0 3
-8 12 -18 21 -10 8 -12 12 -6 8 12 -6 -9 37 -68 140 -39 67 -134 258 -134 270
-1 6 -6 19 -12 31 -7 11 -10 32 -7 45 2 13 1 18 -2 10 -4 -9 -15 7 -30 44 -13
32 -21 61 -18 66 3 5 1 9 -4 9 -5 0 -14 19 -21 42 -7 22 -19 48 -27 55 -8 8
-14 24 -14 36 0 12 -15 74 -34 138 -32 108 -75 291 -82 349 -2 14 -14 102 -29
195 -14 94 -27 226 -30 295 -10 253 -12 410 -6 406 3 -3 7 23 7 57 2 114 11
221 27 297 9 41 20 113 26 160 13 97 27 157 41 165 12 8 12 1 0 -50 -12 -50
-41 -250 -38 -262 1 -4 -1 -28 -5 -52 -5 -28 -4 -47 3 -51 7 -4 7 -40 1 -111
-8 -103 -8 -104 -10 -29 -1 51 -4 71 -11 64 -16 -16 -23 -563 -10 -699 14
-148 17 -167 23 -185 5 -14 25 -148 30 -197 1 -13 5 -23 8 -23 4 0 9 -21 13
-48 4 -26 13 -58 21 -72 16 -29 20 -19 5 11 -6 11 -8 24 -4 30 11 18 47 -93
45 -139 -1 -27 3 -41 9 -37 6 3 12 0 14 -7 28 -98 51 -168 62 -191 8 -16 14
-35 14 -43 0 -8 7 -26 16 -39 9 -14 14 -31 11 -39 -3 -8 0 -17 8 -19 7 -3 21
-27 30 -54 9 -26 21 -57 26 -68 5 -11 18 -47 30 -80 12 -33 28 -69 36 -81 7
-11 10 -24 6 -29 -5 -4 -3 -5 3 -2 13 8 47 -60 38 -75 -4 -7 -2 -8 4 -4 7 4
12 1 12 -7 0 -7 8 -22 18 -33 27 -30 72 -111 72 -130 0 -10 12 -28 27 -40 17
-13 28 -32 29 -50 1 -17 7 -28 14 -26 13 3 30 -16 52 -58 37 -71 132 -194 228
-294 322 -340 545 -553 676 -647 34 -24 77 -57 97 -72 20 -16 42 -30 50 -31 7
-1 24 -12 37 -24 13 -12 33 -25 44 -28 12 -4 39 -19 61 -34 53 -36 205 -112
205 -103 0 5 -30 25 -65 47 -36 21 -65 42 -65 47 0 5 -14 16 -30 24 -17 9 -28
20 -25 25 3 6 0 7 -8 4 -8 -3 -20 3 -28 12 -12 16 -12 17 1 10 8 -4 4 2 -10
13 -14 11 -28 21 -32 21 -5 0 -8 4 -8 9 0 13 58 -10 84 -34 21 -19 113 -68
119 -62 1 1 17 -9 35 -22 35 -25 127 -57 117 -41 -4 6 -11 10 -17 10 -26 0
-488 290 -488 306 0 7 9 1 140 -86 212 -141 346 -211 595 -310 190 -76 544
-182 605 -182 14 0 58 -8 98 -18 67 -17 76 -17 73 3 -2 11 36 8 101 -9 33 -8
62 -13 64 -11 6 5 -158 47 -185 47 -11 0 -23 5 -27 11 -5 9 10 10 57 5 35 -4
61 -5 58 -2 -3 3 -117 33 -253 66 -137 33 -262 67 -280 75 -17 8 -62 24 -101
36 -38 11 -128 49 -200 83 -177 84 -182 87 -162 82 9 -3 17 -1 17 4 0 4 -15
12 -32 16 -18 3 -39 15 -45 24 -7 10 -49 39 -93 64 -48 28 -77 51 -75 59 3 7
-19 26 -55 45 -124 69 -439 332 -626 524 -130 133 -226 252 -357 441 -117 166
-149 221 -139 232 4 4 1 4 -7 0 -11 -6 -13 -4 -8 9 4 9 3 15 -2 12 -9 -6 -67
83 -63 97 1 4 -2 7 -7 7 -11 0 -114 200 -107 207 2 2 10 -10 17 -26 14 -30 37
-45 26 -17 -4 10 -1 13 8 9 8 -3 13 -9 10 -13 -3 -5 1 -10 7 -13 10 -3 10 -8
-2 -23 -14 -17 -13 -18 1 -7 9 7 19 9 23 5 5 -4 0 11 -9 33 -9 22 -18 49 -20
60 -1 11 -12 41 -23 67 -24 54 -73 210 -68 215 2 2 19 -38 39 -89 81 -211 168
-375 352 -668 83 -133 351 -443 510 -590 148 -138 312 -262 495 -375 133 -83
290 -170 290 -161 0 3 -19 15 -42 27 -78 39 -256 149 -307 189 -28 22 -55 40
-60 40 -5 0 -11 4 -13 9 -3 10 -72 67 -108 91 -13 8 -32 23 -42 32 -10 10 -21
18 -24 18 -4 0 -16 9 -28 21 -12 11 -41 36 -66 56 -25 20 -43 38 -42 40 2 3
-9 19 -24 36 -16 18 -6 11 21 -14 73 -68 246 -210 296 -244 24 -16 53 -37 64
-47 11 -9 41 -28 65 -41 25 -13 86 -49 135 -79 300 -184 806 -381 1060 -414
17 -2 66 -10 110 -18 163 -30 342 -39 620 -32 148 3 295 10 325 15 30 6 98 17
150 26 472 78 923 256 1310 515 244 164 545 440 719 660 82 103 211 289 265
382 48 83 21 52 -35 -39 -64 -105 -210 -301 -271 -364 -23 -25 -31 -31 -17
-15 60 70 198 261 258 358 181 290 363 703 439 998 55 211 110 588 92 634 -7
18 -8 17 -14 -14 -24 -144 -25 -145 -19 -20 5 120 -2 151 -17 73 l-8 -38 -2
35 c-2 25 -5 16 -10 -30 -13 -113 -59 -400 -85 -525 -14 -66 -25 -124 -26
-130 0 -5 -4 -1 -8 10 -8 18 -10 17 -25 -15 -9 -19 -14 -26 -11 -15 75 324 89
449 90 795 0 336 -16 481 -84 751 -32 129 -34 145 -18 141 13 -3 17 2 17 26 0
17 2 37 5 44 3 8 -6 30 -19 49 -59 80 -76 110 -76 131 0 13 -16 68 -36 123
-20 55 -36 108 -37 117 -1 9 -5 14 -9 12 -7 -5 -12 18 -9 39 0 4 -3 7 -9 7
-13 0 -52 78 -45 91 4 5 3 9 -2 8 -23 -4 -33 6 -69 64 -21 34 -66 100 -101
146 -35 46 -60 88 -56 94 3 6 1 7 -5 3 -6 -3 -16 2 -22 13 -5 11 -45 64 -87
118 -42 54 -69 92 -60 84 10 -7 17 -9 17 -3 0 12 -25 34 -32 27 -2 -3 -18 10
-34 28 l-29 32 32 -28 c17 -16 34 -28 38 -26 4 1 24 -11 44 -27 31 -24 29 -20
-18 34 -29 34 -57 65 -62 68 -5 3 -9 10 -9 15 0 13 40 -8 60 -31 75 -87 168
-208 171 -223 2 -10 8 -18 12 -17 35 4 291 -444 391 -685 107 -258 191 -588
225 -885 6 -58 9 -65 10 -30 2 105 -58 430 -116 620 -80 266 -202 540 -340
768 -69 114 -215 318 -283 395 -21 23 -54 74 -75 112 -35 66 -35 69 -10 45 29
-27 131 -168 155 -213 8 -16 28 -38 45 -50 40 -27 189 -181 228 -234 17 -24
34 -43 37 -43 12 0 20 57 14 90 -6 29 9 44 19 18 2 -7 8 -10 12 -6 4 4 -3 25
-17 46 -56 83 -86 159 -53 132 8 -7 15 -18 15 -24 0 -7 7 -21 15 -32 12 -16
12 -12 -1 21 -9 22 -27 54 -40 72 -13 17 -24 38 -24 45 0 7 -11 30 -25 50 -17
26 -21 36 -10 32 11 -5 13 -2 9 10 -3 9 -11 13 -17 9 -6 -4 -8 0 -5 8 3 9 -24
60 -63 119 l-70 105 76 -79 c41 -44 78 -77 81 -73 9 9 -100 143 -199 246 -102
106 -274 258 -330 291 -23 14 -77 51 -120 83 -78 58 -100 70 -76 41 7 -9 -11
-2 -40 16 -29 17 -56 28 -59 25 -3 -3 0 -5 6 -5 7 0 12 -5 12 -11 0 -6 -27 14
-61 45 -33 31 -66 56 -73 56 -8 0 -36 15 -62 33 -27 18 -58 37 -68 40 -16 6
-17 5 -6 -8 7 -8 9 -15 5 -15 -17 0 -187 94 -192 106 -3 8 -9 11 -14 8 -5 -3
-9 -3 -9 1 0 3 12 10 28 16 l27 11 -37 19 c-20 10 -40 23 -43 29 -3 5 -12 10
-18 10 -7 0 -6 -4 3 -11 12 -9 12 -10 -3 -5 -10 3 -21 6 -23 6 -3 0 -2 4 1 10
3 6 -1 7 -9 4 -9 -3 -16 -2 -16 4 0 6 -13 13 -30 17 -16 4 -33 11 -36 17 -4 6
-3 9 2 6 23 -15 114 -36 114 -27 0 5 -11 14 -24 19 -13 5 -27 13 -30 18 -3 5
-49 29 -101 51 -87 39 -97 41 -111 26 -10 -10 -24 -13 -38 -9 -38 13 -160 45
-201 54 -22 5 -58 15 -80 23 -22 8 -73 22 -112 32 -78 18 -87 35 -20 35 23 0
47 4 53 8 14 9 14 42 0 42 -5 0 -28 9 -50 19 -44 21 -181 50 -366 76 -79 11
-179 16 -319 16 -112 -1 -201 2 -198 6 26 25 329 40 452 23 44 -7 118 -16 165
-21 85 -8 142 -18 380 -67 25 -5 70 -19 100 -30 31 -11 109 -32 174 -47 65
-16 124 -34 131 -41 7 -7 15 -11 17 -9 5 5 119 -38 212 -80 33 -14 72 -27 88
-27 15 -1 25 -5 22 -9 -3 -5 2 -6 10 -3 17 7 59 -14 51 -25 -6 -11 23 -23 36
-15 5 3 9 2 8 -3 -4 -23 3 -33 23 -33 21 0 21 0 2 15 -18 13 -18 14 6 9 14 -3
-15 16 -64 41 -48 26 -94 44 -102 41 -8 -3 -14 -2 -14 2 0 8 -60 40 -127 68
-24 9 -43 20 -43 24 0 19 -378 147 -560 189 -52 13 -104 26 -115 31 -22 9
-140 22 -192 21 -18 -1 -33 4 -33 10 0 8 -38 9 -130 4 -71 -4 -130 -5 -130 -1
0 4 15 13 33 21 28 12 30 14 13 21 -12 5 -30 1 -47 -9 -17 -9 -31 -12 -34 -6
-4 5 0 9 7 10 7 1 2 5 -12 10 -37 13 168 1 280 -17 237 -37 296 -50 469 -101
46 -13 107 -28 136 -33 28 -5 70 -16 91 -26 21 -10 49 -19 61 -20 40 -5 213
-88 200 -96 -8 -5 -5 -7 8 -6 36 2 56 -2 50 -11 -3 -5 0 -13 6 -17 8 -4 9 -3
5 4 -9 16 -3 15 39 -2 19 -8 35 -14 35 -12 0 8 -39 47 -45 45 -11 -3 -44 24
-40 31 3 4 -12 14 -33 23 -20 8 -77 32 -127 53 -49 22 -93 38 -97 37 -4 -2
-25 3 -45 11 -21 8 -59 20 -86 26 -26 7 -50 17 -53 21 -3 5 -18 9 -33 9 -15 0
-32 5 -39 12 -6 6 -20 13 -29 14 -10 1 -47 9 -83 19 -36 10 -75 17 -87 17 -13
0 -23 5 -23 10 0 6 -8 8 -18 6 -10 -3 -65 3 -122 13 -105 18 -253 35 -414 45
-57 4 -84 9 -75 15 8 5 10 8 4 7 -5 0 -44 -4 -85 -9z m67 -55 c-4 -4 -89 -11
-189 -15 -183 -8 -469 -33 -520 -45 -15 -3 -26 -10 -23 -14 3 -4 -21 -13 -53
-18 -57 -10 -82 -8 -46 4 10 3 30 11 44 17 24 11 24 11 -15 17 -38 5 -36 6 35
17 41 7 138 17 215 23 77 6 145 13 150 15 18 6 408 5 402 -1z m46 -25 c-7 -7
-66 -13 -155 -15 -98 -2 -131 0 -103 6 22 4 87 8 143 8 57 1 106 3 110 6 3 3
8 6 11 6 3 0 0 -5 -6 -11z m-446 -25 c-3 -3 -12 -4 -19 -1 -8 3 -5 6 6 6 11 1
17 -2 13 -5z m66 -1 c-7 -2 -19 -2 -25 0 -7 3 -2 5 12 5 14 0 19 -2 13 -5z
m-273 -13 c-14 -4 -32 -8 -40 -9 -13 -1 -13 0 0 9 8 5 26 9 40 9 l25 -1 -25
-8z m80 6 c0 -2 -7 -6 -15 -10 -8 -3 -15 -1 -15 4 0 6 7 10 15 10 8 0 15 -2
15 -4z m73 -3 c-7 -2 -19 -2 -25 0 -7 3 -2 5 12 5 14 0 19 -2 13 -5z m-418
-33 c-3 -5 -21 -12 -40 -16 -20 -3 -38 -10 -41 -15 -3 -5 -17 -9 -32 -9 -15 0
-76 -14 -137 -31 -60 -17 -128 -35 -149 -40 -21 -5 -63 -21 -93 -34 -29 -14
-57 -24 -61 -23 -4 1 -20 -4 -35 -10 -41 -17 -57 -14 -23 5 68 36 430 143 544
160 18 3 35 9 38 14 3 5 12 9 20 9 8 0 13 -4 9 -10z m372 4 c-7 -7 -208 -43
-241 -44 -72 -1 132 43 228 49 11 0 16 -2 13 -5z m222 -53 c9 -6 -8 -10 -50
-13 -35 -2 -67 1 -70 5 -4 5 -15 5 -25 -1 -27 -13 -174 -26 -153 -12 36 22
270 38 298 21z m-369 -31 c8 -5 11 -10 5 -10 -18 0 -350 -59 -370 -65 -15 -5
-16 -4 -5 3 19 12 178 49 250 58 30 4 62 10 70 15 20 11 32 11 50 -1z m375
-40 c8 -13 -5 -13 -25 0 -13 8 -13 10 2 10 9 0 20 -4 23 -10z m430 0 c39 -6
99 -13 135 -17 60 -6 63 -7 30 -14 -19 -5 -59 -6 -87 -4 -29 2 -53 1 -53 -3 0
-4 -51 -5 -112 -3 -73 2 -104 6 -88 11 21 7 18 8 -20 11 -25 1 -61 4 -80 5
-19 2 -57 4 -85 5 -37 1 -45 3 -30 9 28 12 305 11 390 0z m1270 -188 c-3 -3
-11 0 -18 7 -9 10 -8 11 6 5 10 -3 15 -9 12 -12z m-3505 -86 c0 -2 -7 -7 -16
-10 -8 -3 -12 -2 -9 4 6 10 25 14 25 6z m-190 -70 c0 -2 -7 -7 -16 -10 -8 -3
-12 -2 -9 4 6 10 25 14 25 6z m40 -29 c-8 -8 -53 -40 -100 -71 -47 -32 -75
-49 -63 -38 12 11 20 22 17 24 -2 3 3 11 13 19 11 9 14 10 9 2 -12 -21 0 -15
66 32 63 45 85 56 58 32z m-75 -27 c-3 -5 -12 -10 -18 -10 -7 0 -6 4 3 10 19
12 23 12 15 0z m-687 -543 c-20 -17 -40 -39 -45 -48 -11 -21 -113 -135 -113
-126 0 4 21 31 48 61 81 94 111 139 80 120 -6 -4 -8 -3 -5 4 4 5 16 8 26 5 10
-3 22 0 25 6 4 6 10 11 14 11 4 0 -9 -15 -30 -33z m-28 -92 c-13 -14 -26 -23
-28 -20 -7 7 29 45 41 45 6 0 0 -11 -13 -25z m4890 -41 c0 -2 -9 0 -20 6 -11
6 -20 13 -20 16 0 2 9 0 20 -6 11 -6 20 -13 20 -16z m64 -23 c-2 -3 -12 3 -22
13 -16 17 -16 18 5 5 12 -7 20 -15 17 -18z m-5024 0 c-11 -21 -30 -37 -30 -25
0 8 30 44 37 44 2 0 -1 -9 -7 -19z m5028 -30 c49 -41 137 -141 112 -126 -27
16 -170 148 -170 156 0 15 10 10 58 -30z m-5145 -71 c-25 -33 -48 -60 -49 -60
-12 0 76 119 88 119 5 1 -13 -26 -39 -59z m5677 25 c7 -9 8 -15 2 -15 -5 0
-12 7 -16 15 -3 8 -4 15 -2 15 2 0 9 -7 16 -15z m-504 -57 l29 -33 -32 29
c-31 28 -38 36 -30 36 2 0 16 -15 33 -32z m149 -138 c49 -49 87 -90 85 -90 -3
0 -46 41 -95 90 -49 50 -87 90 -85 90 3 0 46 -40 95 -90z m-5710 -380 c-9 -18
-19 -30 -21 -27 -3 3 2 19 11 37 9 18 19 30 21 27 3 -3 -2 -19 -11 -37z m-40
-120 c-9 -17 -19 -30 -22 -27 -2 3 0 14 6 25 6 11 7 22 4 26 -3 3 -1 6 6 6 7
0 9 5 5 13 -5 9 -4 9 5 1 10 -9 9 -18 -4 -44z m-54 -113 c-10 -9 -11 -8 -5 6
3 10 9 15 12 12 3 -3 0 -11 -7 -18z m-150 -308 c-5 -13 -10 -19 -10 -12 -1 15
10 45 15 40 3 -2 0 -15 -5 -28z m32 -41 c-3 -16 -9 -28 -14 -28 -4 0 -3 14 3
31 12 36 18 35 11 -3z m-18 -85 c-4 -10 -11 -38 -16 -63 -4 -25 -15 -65 -23
-90 l-15 -45 5 45 c9 73 36 170 46 170 6 0 7 -8 3 -17z m3453 -150 l-3 -88
-573 -3 -572 -2 2 -398 3 -397 489 -2 490 -2 -1 -68 -1 -68 -489 -5 -488 -5
-3 -462 -2 -463 572 -2 573 -3 3 -87 3 -88 -721 0 -720 0 0 1115 0 1115 720 0
721 0 -3 -87z m1917 -3 l0 -85 -573 -3 -572 -2 2 -398 3 -397 490 -5 490 -5 3
-44 c2 -25 1 -55 -3 -68 l-5 -23 -490 0 -490 0 0 -467 0 -468 561 3 c409 2
565 -1 575 -9 10 -8 14 -36 14 -90 l0 -79 -720 0 -720 0 0 1115 0 1115 718 -2
717 -3 0 -85z m-5427 -81 c-6 -4 -8 -19 -4 -35 5 -23 4 -26 -5 -14 -9 12 -10
11 -6 -7 3 -13 1 -23 -4 -23 -12 0 -11 12 2 66 8 30 15 41 20 33 4 -8 3 -16
-3 -20z m-31 -301 c-3 -8 -6 -5 -6 6 -1 11 2 17 5 13 3 -3 4 -12 1 -19z m418
-308 c-4 -17 -9 -29 -12 -26 -3 2 -2 19 2 36 4 17 9 29 12 26 3 -2 2 -19 -2
-36z m-4 -92 c1 -29 2 -109 1 -178 0 -77 3 -117 8 -105 6 15 9 7 10 -30 4
-184 38 -513 61 -582 5 -18 11 -50 12 -72 0 -22 4 -38 8 -35 4 2 9 -11 12 -29
3 -17 8 -43 12 -57 4 -14 10 -43 15 -65 5 -22 14 -53 21 -70 6 -16 12 -41 13
-55 1 -16 6 -24 15 -22 9 2 12 -5 9 -22 -3 -16 -1 -23 5 -19 6 4 8 -2 5 -15
-4 -12 -2 -25 4 -28 5 -3 8 -15 5 -25 -3 -10 0 -17 6 -16 6 1 12 -2 12 -8 1
-5 11 -26 23 -45 26 -40 62 -133 67 -170 2 -14 9 -36 15 -50 l11 -25 -5 25
c-5 24 -4 24 9 6 8 -11 18 -36 21 -55 8 -42 36 -103 69 -146 12 -16 41 -65 65
-108 23 -43 71 -121 106 -175 l65 -97 -48 51 c-26 28 -69 80 -94 115 -63 87
-239 407 -274 499 -16 41 -33 76 -37 78 -4 2 -3 15 3 29 8 21 6 31 -13 52 -13
14 -26 28 -29 31 -27 22 -139 400 -139 469 0 16 -4 32 -9 35 -5 4 -12 25 -16
49 -4 23 -16 86 -26 140 -10 54 -19 141 -19 193 0 64 -3 93 -10 89 -12 -7 -7
331 5 438 9 71 25 74 26 5z m-54 -335 c-3 -10 -5 -2 -5 17 0 19 2 27 5 18 2
-10 2 -26 0 -35z m-410 15 c-3 -8 -6 -5 -6 6 -1 11 2 17 5 13 3 -3 4 -12 1
-19z m0 -60 c-3 -8 -6 -5 -6 6 -1 11 2 17 5 13 3 -3 4 -12 1 -19z m-120 -20
c-3 -7 -5 -2 -5 12 0 14 2 19 5 13 2 -7 2 -19 0 -25z m120 -70 c-3 -7 -5 -2
-5 12 0 14 2 19 5 13 2 -7 2 -19 0 -25z m-64 -183 c3 -52 2 -77 -3 -60 -8 30
-13 162 -6 154 2 -2 6 -44 9 -94z m7144 23 c-3 -7 -5 -2 -5 12 0 14 2 19 5 13
2 -7 2 -19 0 -25z m-7160 -120 c-3 -8 -6 -5 -6 6 -1 11 2 17 5 13 3 -3 4 -12
1 -19z m152 -238 c1 -13 0 -13 -9 0 -5 8 -9 24 -9 35 l0 20 9 -20 c5 -11 9
-27 9 -35z m6858 -112 c-3 -8 -6 -5 -6 6 -1 11 2 17 5 13 3 -3 4 -12 1 -19z
m-6410 -50 c-3 -8 -6 -5 -6 6 -1 11 2 17 5 13 3 -3 4 -12 1 -19z m81 -473 c-3
-3 -9 2 -12 12 -6 14 -5 15 5 6 7 -7 10 -15 7 -18z m655 -789 c11 -16 16 -26
9 -22 -6 4 -32 35 -58 69 -39 53 -40 56 -9 22 20 -22 46 -53 58 -69z m5017 -9
c0 -1 -33 -34 -72 -72 l-73 -70 70 73 c64 67 75 77 75 69z m30 -30 c0 -1 -30
-32 -67 -67 l-68 -65 65 68 c60 62 70 72 70 64z m-4936 -94 c60 -67 62 -71 17
-28 -47 45 -98 105 -89 105 2 0 34 -35 72 -77z m4706 -76 c0 -1 -26 -27 -57
-57 l-58 -55 55 58 c50 53 60 62 60 54z m50 -10 c0 -1 -26 -27 -57 -57 l-58
-55 55 58 c50 53 60 62 60 54z m-180 -110 c0 -2 -12 -14 -27 -28 l-28 -24 24
28 c23 25 31 32 31 24z m50 -10 c0 -2 -15 -16 -32 -33 l-33 -29 29 33 c28 30
36 37 36 29z m-120 -51 c0 -2 -8 -10 -17 -17 -16 -13 -17 -12 -4 4 13 16 21
21 21 13z m50 -10 c0 -2 -8 -10 -17 -17 -16 -13 -17 -12 -4 4 13 16 21 21 21
13z m-50 -40 c0 -2 -8 -10 -17 -17 -16 -13 -17 -12 -4 4 13 16 21 21 21 13z
m-120 -90 c0 -2 -8 -10 -17 -17 -16 -13 -17 -12 -4 4 13 16 21 21 21 13z
m-160 -111 c0 -2 -10 -9 -22 -15 -22 -11 -22 -10 -4 4 21 17 26 19 26 11z
m-150 -90 c0 -2 -10 -9 -22 -15 -22 -11 -22 -10 -4 4 21 17 26 19 26 11z
m-144 -80 c-11 -8 -25 -15 -30 -15 -6 1 0 7 14 15 32 19 40 18 16 0z m-136
-65 c-8 -5 -19 -10 -25 -10 -5 0 -3 5 5 10 8 5 20 10 25 10 6 0 3 -5 -5 -10z"/>
<path d="M3438 7633 c6 -2 18 -2 25 0 6 3 1 5 -13 5 -14 0 -19 -2 -12 -5z"/>
<path d="M651 3394 c0 -11 3 -14 6 -6 3 7 2 16 -1 19 -3 4 -6 -2 -5 -13z"/>
<path d="M870 2606 c0 -8 5 -18 10 -21 6 -3 10 1 10 9 0 8 -4 18 -10 21 -5 3
-10 -1 -10 -9z"/>
<path d="M890 2558 c0 -9 5 -20 10 -23 13 -8 13 5 0 25 -8 13 -10 13 -10 -2z"/>
<path d="M4483 7723 c9 -2 23 -2 30 0 6 3 -1 5 -18 5 -16 0 -22 -2 -12 -5z"/>
<path d="M4553 7713 c9 -2 25 -2 35 0 9 3 1 5 -18 5 -19 0 -27 -2 -17 -5z"/>
<path d="M3166 7684 c-5 -14 -4 -15 9 -4 17 14 19 20 6 20 -5 0 -12 -7 -15
-16z"/>
<path d="M4678 7693 c7 -3 16 -2 19 1 4 3 -2 6 -13 5 -11 0 -14 -3 -6 -6z"/>
<path d="M4728 7683 c7 -3 16 -2 19 1 4 3 -2 6 -13 5 -11 0 -14 -3 -6 -6z"/>
<path d="M4778 7673 c7 -3 16 -2 19 1 4 3 -2 6 -13 5 -11 0 -14 -3 -6 -6z"/>
<path d="M4828 7663 c7 -3 16 -2 19 1 4 3 -2 6 -13 5 -11 0 -14 -3 -6 -6z"/>
<path d="M5105 7660 c-14 -23 8 -35 160 -92 48 -18 98 -30 125 -29 28 0 57 -7
80 -21 19 -11 61 -29 92 -39 32 -10 67 -23 79 -29 11 -7 23 -9 26 -6 8 8 -325
164 -440 205 -62 23 -112 27 -122 11z"/>
<path d="M4868 7653 c7 -3 16 -2 19 1 4 3 -2 6 -13 5 -11 0 -14 -3 -6 -6z"/>
<path d="M4908 7643 c7 -3 16 -2 19 1 4 3 -2 6 -13 5 -11 0 -14 -3 -6 -6z"/>
<path d="M4941 7636 c2 -2 54 -18 114 -35 166 -48 154 -46 128 -27 -27 20
-263 81 -242 62z"/>
<path d="M5211 7556 c2 -2 18 -6 34 -10 22 -5 26 -4 15 4 -14 9 -59 15 -49 6z"/>
<path d="M4888 7413 c7 -3 16 -2 19 1 4 3 -2 6 -13 5 -11 0 -14 -3 -6 -6z"/>
<path d="M5033 7414 c3 -4 57 -23 119 -44 62 -21 122 -41 133 -44 16 -6 15 -4
-3 6 -12 8 -19 17 -15 22 4 4 -1 4 -11 0 -15 -6 -17 -4 -11 6 5 8 4 11 -2 7
-5 -3 -51 7 -101 23 -91 30 -121 36 -109 24z"/>
<path d="M5115 7341 c175 -60 255 -95 456 -199 24 -13 36 -16 26 -9 -15 13
-16 15 -2 21 8 3 22 3 30 0 8 -4 15 -1 15 4 0 6 -10 14 -22 17 -13 4 -32 15
-43 25 -31 29 -136 78 -180 84 -34 5 -31 3 20 -15 33 -11 64 -27 68 -35 4 -8
13 -14 19 -14 16 0 101 -51 95 -57 -3 -3 -50 18 -104 45 -55 27 -142 65 -194
84 -93 35 -360 118 -376 118 -4 -1 82 -32 192 -69z"/>
<path d="M5853 7384 c0 -8 8 -14 18 -14 9 0 39 -9 66 -21 26 -11 44 -16 38
-10 -5 5 -35 20 -66 34 -42 18 -56 21 -56 11z"/>
<path d="M4838 7373 c7 -3 16 -2 19 1 4 3 -2 6 -13 5 -11 0 -14 -3 -6 -6z"/>
<path d="M5704 7261 c3 -4 38 -25 78 -46 40 -20 95 -50 123 -65 27 -16 53 -26
58 -23 13 8 -117 80 -226 127 -21 9 -36 12 -33 7z"/>
<path d="M5970 7106 c0 -3 9 -10 20 -16 11 -6 20 -8 20 -6 0 3 -9 10 -20 16
-11 6 -20 8 -20 6z"/>
<path d="M5689 7073 c28 -19 111 -64 111 -59 0 7 -108 76 -120 76 -9 0 -5 -7
9 -17z"/>
<path d="M5903 7045 c15 -9 25 -20 22 -25 -3 -5 0 -12 6 -16 8 -5 10 -3 4 7
-4 8 9 -3 29 -23 20 -21 40 -38 46 -38 5 0 10 -5 10 -11 0 -5 4 -8 9 -5 27 17
141 -54 297 -187 53 -45 112 -95 131 -110 18 -16 33 -24 33 -19 0 14 -261 283
-274 280 -13 -2 -65 21 -87 39 -36 30 -182 104 -229 117 -24 6 -24 6 3 -9z"/>
<path d="M5684 6996 c11 -9 27 -16 35 -16 21 0 2 16 -29 24 -24 7 -24 6 -6 -8z"/>
<path d="M6067 6999 c7 -7 15 -10 18 -7 3 3 -2 9 -12 12 -14 6 -15 5 -6 -5z"/>
<path d="M5820 6996 c0 -2 23 -18 52 -35 40 -25 48 -35 37 -42 -12 -7 -12 -9
1 -10 8 -1 21 -1 29 0 7 2 10 -2 7 -7 -3 -5 2 -16 12 -23 16 -13 16 -13 2 5
-14 18 -13 19 5 12 22 -8 19 -5 -45 45 -40 31 -100 64 -100 55z"/>
<path d="M6102 6979 c2 -6 6 -9 10 -7 3 2 16 -6 27 -16 16 -15 20 -16 16 -4
-7 18 -59 45 -53 27z"/>
<path d="M5850 6894 c0 -1 18 -13 40 -28 24 -16 37 -20 34 -11 -3 8 -14 17
-25 20 -11 4 -17 10 -15 14 3 4 -4 7 -15 7 -10 0 -19 -1 -19 -2z"/>
<path d="M5975 6814 c23 -23 87 -66 91 -61 3 2 -7 12 -21 21 -53 34 -80 49
-70 40z"/>
<path d="M6070 6791 c0 -4 10 -13 23 -19 12 -7 32 -19 45 -28 12 -9 22 -13 22
-8 -1 11 -90 66 -90 55z"/>
<path d="M6260 6757 c0 -2 15 -16 33 -33 l32 -29 -29 33 c-28 30 -36 37 -36
29z"/>
<path d="M6241 6663 c7 -12 15 -20 18 -17 3 2 -3 12 -13 22 -17 16 -18 16 -5
-5z"/>
<path d="M6355 6660 c3 -5 8 -10 11 -10 2 0 4 5 4 10 0 6 -5 10 -11 10 -5 0
-7 -4 -4 -10z"/>
<path d="M6750 6525 c13 -14 26 -25 28 -25 3 0 -5 11 -18 25 -13 14 -26 25
-28 25 -3 0 5 -11 18 -25z"/>
<path d="M6800 6465 c13 -14 25 -25 27 -25 9 0 1 20 -13 34 -26 26 -39 18 -14
-9z"/>
<path d="M6516 5783 c68 -90 94 -121 79 -93 -13 23 -135 180 -141 180 -3 0 25
-39 62 -87z"/>
<path d="M6515 5830 c10 -11 20 -20 23 -20 3 0 -3 9 -13 20 -10 11 -20 20 -23
20 -3 0 3 -9 13 -20z"/>
<path d="M557 5803 c-4 -3 -7 -13 -7 -22 1 -13 3 -13 11 2 11 19 8 33 -4 20z"/>
<path d="M6564 5767 c16 -20 30 -37 33 -37 7 0 -36 58 -49 66 -7 4 1 -9 16
-29z"/>
<path d="M6620 5690 c12 -16 24 -30 26 -30 3 0 -4 14 -16 30 -12 17 -24 30
-26 30 -3 0 4 -13 16 -30z"/>
<path d="M6770 5460 c6 -11 13 -20 16 -20 2 0 0 9 -6 20 -6 11 -13 20 -16 20
-2 0 0 -9 6 -20z"/>
<path d="M6946 5395 c21 -67 38 -108 41 -99 2 6 -8 36 -22 65 -14 30 -23 45
-19 34z"/>
<path d="M82 4545 c0 -16 2 -22 5 -12 2 9 2 23 0 30 -3 6 -5 -1 -5 -18z"/>
<path d="M53 4345 c0 -27 2 -38 4 -22 2 15 2 37 0 50 -2 12 -4 0 -4 -28z"/>
<path d="M162 4250 c0 -14 2 -19 5 -12 2 6 2 18 0 25 -3 6 -5 1 -5 -13z"/>
<path d="M38 4204 c-5 -4 -8 -19 -8 -33 0 -18 3 -22 11 -14 6 6 9 21 7 33 -1
12 -6 18 -10 14z"/>
<path d="M7253 4045 c0 -22 2 -30 4 -17 2 12 2 30 0 40 -3 9 -5 -1 -4 -23z"/>
<path d="M7391 2834 c0 -11 3 -14 6 -6 3 7 2 16 -1 19 -3 4 -6 -2 -5 -13z"/>
<path d="M372 2580 c0 -14 2 -19 5 -12 2 6 2 18 0 25 -3 6 -5 1 -5 -13z"/>
<path d="M271 2464 c0 -11 3 -14 6 -6 3 7 2 16 -1 19 -3 4 -6 -2 -5 -13z"/>
<path d="M857 2344 c-4 -4 -7 -14 -7 -23 0 -14 2 -14 10 -1 8 12 10 12 10 1 0
-8 3 -12 6 -8 3 3 2 13 -3 22 -5 8 -12 12 -16 9z"/>
<path d="M910 2310 c6 -11 13 -20 16 -20 2 0 0 9 -6 20 -6 11 -13 20 -16 20
-2 0 0 -9 6 -20z"/>
<path d="M400 2241 c0 -5 7 -15 17 -22 15 -13 15 -12 4 9 -12 23 -21 28 -21
13z"/>
<path d="M925 2210 c9 -16 18 -30 21 -30 2 0 -2 14 -11 30 -9 17 -18 30 -21
30 -2 0 2 -13 11 -30z"/>
<path d="M6865 2210 c-9 -16 -13 -30 -11 -30 3 0 12 14 21 30 9 17 13 30 11
30 -3 0 -12 -13 -21 -30z"/>
<path d="M902 1580 c7 -11 16 -20 21 -20 4 0 3 9 -3 20 -6 11 -15 20 -20 20
-6 0 -5 -9 2 -20z"/>
<path d="M940 1526 c0 -2 8 -10 18 -17 15 -13 16 -12 3 4 -13 16 -21 21 -21
13z"/>
<path d="M806 1417 c15 -27 32 -51 39 -54 7 -2 33 -30 58 -61 25 -31 61 -73
81 -92 19 -19 36 -41 36 -47 0 -7 17 -21 39 -32 51 -26 117 -86 131 -119 6
-15 28 -35 48 -45 l37 -18 -27 25 c-16 14 -28 28 -28 31 0 3 -16 20 -36 38
-20 17 -92 95 -159 172 -113 129 -170 189 -151 158 14 -25 -13 -13 -31 13 -10
14 -28 37 -41 52 -20 24 -19 22 4 -21z m175 -174 c13 -16 12 -17 -3 -4 -10 7
-18 15 -18 17 0 8 8 3 21 -13z"/>
<path d="M840 1423 c13 -18 25 -33 27 -33 8 0 -17 38 -33 51 -11 9 -9 2 6 -18z"/>
<path d="M1175 1250 c3 -5 11 -10 16 -10 6 0 7 5 4 10 -3 6 -11 10 -16 10 -6
0 -7 -4 -4 -10z"/>
<path d="M6295 1230 c-3 -5 -1 -10 4 -10 6 0 11 5 11 10 0 6 -2 10 -4 10 -3 0
-8 -4 -11 -10z"/>
<path d="M1240 1186 c0 -2 7 -9 15 -16 13 -11 14 -10 9 4 -5 14 -24 23 -24 12z"/>
<path d="M1340 1089 c19 -19 48 -47 63 -64 l29 -30 -21 32 c-12 17 -40 46 -64
64 l-42 32 35 -34z"/>
<path d="M1465 974 c84 -75 107 -94 118 -99 7 -4 -15 19 -48 50 -33 31 -69 61
-80 67 -12 5 -8 -2 10 -18z"/>
<path d="M1300 916 c0 -2 8 -10 18 -17 15 -13 16 -12 3 4 -13 16 -21 21 -21
13z"/>
<path d="M2451 846 c2 -2 15 -9 29 -15 24 -11 24 -11 6 3 -16 13 -49 24 -35
12z"/>
<path d="M2490 786 c0 -2 7 -7 16 -10 8 -3 12 -2 9 4 -6 10 -25 14 -25 6z"/>
<path d="M2596 781 c-3 -5 33 -25 80 -45 106 -44 406 -146 431 -146 10 0 -79
33 -197 74 -118 40 -236 85 -262 100 -25 15 -49 23 -52 17z"/>
<path d="M1410 777 c0 -3 17 -17 37 -33 20 -15 33 -23 29 -16 -8 13 -66 56
-66 49z"/>
<path d="M2610 730 c8 -5 20 -10 25 -10 6 0 3 5 -5 10 -8 5 -19 10 -25 10 -5
0 -3 -5 5 -10z"/>
<path d="M1506 695 c9 -14 21 -25 27 -25 6 0 0 11 -13 25 -13 14 -25 25 -27
25 -2 0 4 -11 13 -25z"/>
<path d="M2670 705 c14 -8 30 -14 35 -14 6 0 -1 6 -15 14 -14 8 -29 14 -35 14
-5 0 1 -6 15 -14z"/>
<path d="M2721 686 c2 -2 15 -9 29 -15 24 -11 24 -11 6 3 -16 13 -49 24 -35
12z"/>
<path d="M3130 589 c0 -9 16 -14 102 -29 106 -19 101 -6 -5 16 -54 11 -97 17
-97 13z"/>
<path d="M3405 526 c22 -7 45 -10 50 -7 10 6 -35 18 -70 19 -11 0 -2 -5 20
-12z"/>
<path d="M3618 503 c7 -3 16 -2 19 1 4 3 -2 6 -13 5 -11 0 -14 -3 -6 -6z"/>
<path d="M4298 503 c6 -2 18 -2 25 0 6 3 1 5 -13 5 -14 0 -19 -2 -12 -5z"/>
<path d="M4188 493 c12 -2 32 -2 45 0 12 2 2 4 -23 4 -25 0 -35 -2 -22 -4z"/>
<path d="M3883 483 c42 -2 112 -2 155 0 42 1 7 3 -78 3 -85 0 -120 -2 -77 -3z"/>
</g>
</svg>
